<?xml version="1.0" encoding="UTF-8" standalone="no"?>
<!DOCTYPE svg PUBLIC "-//W3C//DTD SVG 1.1//EN"
 "http://www.w3.org/Graphics/SVG/1.1/DTD/svg11.dtd">
<!-- Generated by graphviz version 2.49.3 (20211023.0002)
 -->
<!-- Title: caves Pages: 1 -->
<svg width="591pt" height="260pt"
 viewBox="0.00 0.00 591.07 260.00" xmlns="http://www.w3.org/2000/svg" xmlns:xlink="http://www.w3.org/1999/xlink">
<g id="graph0" class="graph" transform="scale(1 1) rotate(0) translate(4 256)">
<title>caves</title>
<polygon fill="white" stroke="transparent" points="-4,4 -4,-256 587.07,-256 587.07,4 -4,4"/>
<!-- end -->
<g id="node1" class="node">
<title>end</title>
<ellipse fill="none" stroke="black" cx="188.07" cy="-162" rx="27" ry="18"/>
<text text-anchor="middle" x="188.07" y="-158.3" font-family="Times,serif" font-size="14.00">end</text>
</g>
<!-- zs -->
<g id="node2" class="node">
<title>zs</title>
<ellipse fill="none" stroke="black" cx="344.07" cy="-90" rx="27" ry="18"/>
<text text-anchor="middle" x="344.07" y="-86.3" font-family="Times,serif" font-size="14.00">zs</text>
</g>
<!-- end&#45;&#45;zs -->
<g id="edge1" class="edge">
<title>end&#45;&#45;zs</title>
<path fill="none" stroke="black" d="M209.76,-151.27C239.48,-137.93 292.55,-114.11 322.31,-100.76"/>
</g>
<!-- HW -->
<g id="node3" class="node">
<title>HW</title>
<ellipse fill="none" stroke="black" cx="243.07" cy="-234" rx="27" ry="18"/>
<text text-anchor="middle" x="243.07" y="-230.3" font-family="Times,serif" font-size="14.00">HW</text>
</g>
<!-- HW&#45;&#45;end -->
<g id="edge4" class="edge">
<title>HW&#45;&#45;end</title>
<path fill="none" stroke="black" d="M231.13,-217.81C221.91,-206.07 209.2,-189.89 199.98,-178.16"/>
</g>
<!-- HW&#45;&#45;zs -->
<g id="edge13" class="edge">
<title>HW&#45;&#45;zs</title>
<path fill="none" stroke="black" d="M252.58,-216.85C263.46,-198.71 282.09,-168.59 300.07,-144 309.81,-130.68 321.83,-116.32 330.85,-105.91"/>
</g>
<!-- gv -->
<g id="node4" class="node">
<title>gv</title>
<ellipse fill="none" stroke="black" cx="78.07" cy="-162" rx="27" ry="18"/>
<text text-anchor="middle" x="78.07" y="-158.3" font-family="Times,serif" font-size="14.00">gv</text>
</g>
<!-- HW&#45;&#45;gv -->
<g id="edge2" class="edge">
<title>HW&#45;&#45;gv</title>
<path fill="none" stroke="black" d="M220.81,-223.56C189.23,-210.16 131.76,-185.78 100.23,-172.4"/>
</g>
<!-- iu -->
<g id="node6" class="node">
<title>iu</title>
<ellipse fill="none" stroke="black" cx="336.07" cy="-162" rx="27" ry="18"/>
<text text-anchor="middle" x="336.07" y="-158.3" font-family="Times,serif" font-size="14.00">iu</text>
</g>
<!-- HW&#45;&#45;iu -->
<g id="edge6" class="edge">
<title>HW&#45;&#45;iu</title>
<path fill="none" stroke="black" d="M260.56,-219.83C277.19,-207.32 302.05,-188.6 318.65,-176.11"/>
</g>
<!-- zt -->
<g id="node11" class="node">
<title>zt</title>
<ellipse fill="none" stroke="black" cx="67.07" cy="-18" rx="27" ry="18"/>
<text text-anchor="middle" x="67.07" y="-14.3" font-family="Times,serif" font-size="14.00">zt</text>
</g>
<!-- HW&#45;&#45;zt -->
<g id="edge11" class="edge">
<title>HW&#45;&#45;zt</title>
<path fill="none" stroke="black" d="M242.77,-215.66C241.71,-196.73 237.79,-166.17 224.07,-144 189.95,-88.9 122.53,-47.88 88.21,-29.57"/>
</g>
<!-- start -->
<g id="node7" class="node">
<title>start</title>
<ellipse fill="none" stroke="black" cx="40.07" cy="-90" rx="27" ry="18"/>
<text text-anchor="middle" x="40.07" y="-86.3" font-family="Times,serif" font-size="14.00">start</text>
</g>
<!-- gv&#45;&#45;start -->
<g id="edge5" class="edge">
<title>gv&#45;&#45;start</title>
<path fill="none" stroke="black" d="M69.25,-144.76C63.11,-133.46 54.96,-118.44 48.83,-107.15"/>
</g>
<!-- gv&#45;&#45;zt -->
<g id="edge15" class="edge">
<title>gv&#45;&#45;zt</title>
<path fill="none" stroke="black" d="M78.42,-143.89C78.62,-125.94 78.45,-96.92 76.07,-72 74.91,-59.92 72.61,-46.44 70.62,-36.1"/>
</g>
<!-- WO -->
<g id="node5" class="node">
<title>WO</title>
<ellipse fill="none" stroke="black" cx="106.07" cy="-234" rx="27" ry="18"/>
<text text-anchor="middle" x="106.07" y="-230.3" font-family="Times,serif" font-size="14.00">WO</text>
</g>
<!-- WO&#45;&#45;end -->
<g id="edge8" class="edge">
<title>WO&#45;&#45;end</title>
<path fill="none" stroke="black" d="M122.27,-219.17C136.74,-206.82 157.81,-188.83 172.18,-176.56"/>
</g>
<!-- WO&#45;&#45;zs -->
<g id="edge14" class="edge">
<title>WO&#45;&#45;zs</title>
<path fill="none" stroke="black" d="M110.38,-215.92C116.35,-195.76 129.1,-162.63 152.07,-144 200.81,-104.46 276.95,-94.35 317.13,-91.81"/>
</g>
<!-- WO&#45;&#45;gv -->
<g id="edge10" class="edge">
<title>WO&#45;&#45;gv</title>
<path fill="none" stroke="black" d="M99.43,-216.41C94.97,-205.25 89.11,-190.6 84.65,-179.47"/>
</g>
<!-- WO&#45;&#45;iu -->
<g id="edge3" class="edge">
<title>WO&#45;&#45;iu</title>
<path fill="none" stroke="black" d="M130.25,-225.64C174.42,-212.2 267.68,-183.81 311.87,-170.37"/>
</g>
<!-- WO&#45;&#45;start -->
<g id="edge21" class="edge">
<title>WO&#45;&#45;start</title>
<path fill="none" stroke="black" d="M85.23,-222.18C70.24,-213.13 51.12,-198.7 42.07,-180 30.96,-157.05 33.34,-126.71 36.43,-108.04"/>
</g>
<!-- WO&#45;&#45;zt -->
<g id="edge17" class="edge">
<title>WO&#45;&#45;zt</title>
<path fill="none" stroke="black" d="M84.63,-222.75C67.69,-213.65 44.55,-198.89 30.07,-180 9.36,-153 9.93,-141.51 4.07,-108 1.31,-92.24 -2.69,-86.51 4.07,-72 12.75,-53.34 31.6,-38.9 46.43,-29.84"/>
</g>
<!-- start&#45;&#45;zt -->
<g id="edge16" class="edge">
<title>start&#45;&#45;zt</title>
<path fill="none" stroke="black" d="M46.46,-72.41C50.71,-61.41 56.26,-47.03 60.53,-35.96"/>
</g>
<!-- DP -->
<g id="node8" class="node">
<title>DP</title>
<ellipse fill="none" stroke="black" cx="363.07" cy="-234" rx="27" ry="18"/>
<text text-anchor="middle" x="363.07" y="-230.3" font-family="Times,serif" font-size="14.00">DP</text>
</g>
<!-- DP&#45;&#45;zs -->
<g id="edge12" class="edge">
<title>DP&#45;&#45;zs</title>
<path fill="none" stroke="black" d="M368.18,-216.02C372.84,-197.93 378.16,-168.57 372.07,-144 368.76,-130.67 361.42,-116.99 355.08,-106.87"/>
</g>
<!-- DP&#45;&#45;gv -->
<g id="edge19" class="edge">
<title>DP&#45;&#45;gv</title>
<path fill="none" stroke="black" d="M337.77,-226.79C283.55,-213.47 156.7,-182.31 102.89,-169.1"/>
</g>
<!-- DP&#45;&#45;iu -->
<g id="edge20" class="edge">
<title>DP&#45;&#45;iu</title>
<path fill="none" stroke="black" d="M356.67,-216.41C352.43,-205.41 346.88,-191.03 342.61,-179.96"/>
</g>
<!-- by -->
<g id="node9" class="node">
<title>by</title>
<ellipse fill="none" stroke="black" cx="446.07" cy="-162" rx="27" ry="18"/>
<text text-anchor="middle" x="446.07" y="-158.3" font-family="Times,serif" font-size="14.00">by</text>
</g>
<!-- DP&#45;&#45;by -->
<g id="edge7" class="edge">
<title>DP&#45;&#45;by</title>
<path fill="none" stroke="black" d="M379.46,-219.17C394.11,-206.82 415.44,-188.83 429.98,-176.56"/>
</g>
<!-- SK -->
<g id="node10" class="node">
<title>SK</title>
<ellipse fill="none" stroke="black" cx="468.07" cy="-234" rx="27" ry="18"/>
<text text-anchor="middle" x="468.07" y="-230.3" font-family="Times,serif" font-size="14.00">SK</text>
</g>
<!-- SK&#45;&#45;zs -->
<g id="edge18" class="edge">
<title>SK&#45;&#45;zs</title>
<path fill="none" stroke="black" d="M477,-216.7C486.14,-197.59 497.04,-165.79 482.07,-144 457.07,-107.62 403.36,-96.2 370.81,-92.62"/>
</g>
<!-- SK&#45;&#45;iu -->
<g id="edge9" class="edge">
<title>SK&#45;&#45;iu</title>
<path fill="none" stroke="black" d="M447.44,-222.06C422.64,-208.91 381.28,-186.98 356.55,-173.86"/>
</g>
<!-- QJ -->
<g id="node12" class="node">
<title>QJ</title>
<ellipse fill="none" stroke="black" cx="556.07" cy="-162" rx="27" ry="18"/>
<text text-anchor="middle" x="556.07" y="-158.3" font-family="Times,serif" font-size="14.00">QJ</text>
</g>
<!-- QJ&#45;&#45;zs -->
<g id="edge22" class="edge">
<title>QJ&#45;&#45;zs</title>
<path fill="none" stroke="black" d="M534.08,-151.45C527.97,-148.91 521.3,-146.25 515.07,-144 463.62,-125.41 402.09,-107.33 368.65,-97.85"/>
</g>
</g>
</svg>
