<?xml version="1.0" encoding="UTF-8" standalone="no"?>
<!DOCTYPE svg PUBLIC "-//W3C//DTD SVG 1.1//EN"
 "http://www.w3.org/Graphics/SVG/1.1/DTD/svg11.dtd">
<!-- Generated by graphviz version 2.49.3 (20211023.0002)
 -->
<!-- Title: caves Pages: 1 -->
<svg width="248pt" height="692pt"
 viewBox="0.00 0.00 248.00 692.00" xmlns="http://www.w3.org/2000/svg" xmlns:xlink="http://www.w3.org/1999/xlink">
<g id="graph0" class="graph" transform="scale(1 1) rotate(0) translate(4 688)">
<title>caves</title>
<polygon fill="white" stroke="transparent" points="-4,4 -4,-688 244,-688 244,4 -4,4"/>
<!-- start -->
<g id="node1" class="node">
<title>start</title>
<ellipse fill="none" stroke="red" cx="126" cy="-666" rx="27" ry="18"/>
<text text-anchor="middle" x="126" y="-662.3" font-family="Times,serif" font-size="14.00">start</text>
</g>
<!-- gv -->
<g id="node2" class="node">
<title>gv</title>
<ellipse fill="none" stroke="black" cx="154" cy="-594" rx="27" ry="18"/>
<text text-anchor="middle" x="154" y="-590.3" font-family="Times,serif" font-size="14.00">gv</text>
</g>
<!-- start&#45;&gt;gv -->
<g id="edge1" class="edge">
<title>start&#45;&gt;gv</title>
<path fill="none" stroke="black" d="M132.64,-648.41C135.91,-640.22 139.94,-630.14 143.62,-620.95"/>
<polygon fill="black" stroke="black" points="146.95,-622.05 147.41,-611.47 140.45,-619.45 146.95,-622.05"/>
</g>
<!-- WO -->
<g id="node3" class="node">
<title>WO</title>
<ellipse fill="none" stroke="black" cx="44" cy="-522" rx="27" ry="18"/>
<text text-anchor="middle" x="44" y="-518.3" font-family="Times,serif" font-size="14.00">WO</text>
</g>
<!-- start&#45;&gt;WO -->
<g id="edge2" class="edge">
<title>start&#45;&gt;WO</title>
<path fill="none" stroke="black" d="M119.5,-648.33C114,-634.17 105.92,-613.27 99,-595"/>
<path fill="none" stroke="black" d="M99,-593C92.02,-574.57 78.35,-557.13 66.38,-544.27"/>
<polygon fill="black" stroke="black" points="68.7,-541.63 59.22,-536.88 63.67,-546.5 68.7,-541.63"/>
</g>
<!-- zt -->
<g id="node4" class="node">
<title>zt</title>
<ellipse fill="none" stroke="black" cx="109" cy="-450" rx="27" ry="18"/>
<text text-anchor="middle" x="109" y="-446.3" font-family="Times,serif" font-size="14.00">zt</text>
</g>
<!-- start&#45;&gt;zt -->
<g id="edge3" class="edge">
<title>start&#45;&gt;zt</title>
<path fill="none" stroke="black" d="M99,-593C84.59,-554.92 92.87,-507.03 100.6,-477.74"/>
<polygon fill="black" stroke="black" points="104.05,-478.42 103.38,-467.84 97.31,-476.52 104.05,-478.42"/>
</g>
<!-- gv&#45;&gt;WO -->
<g id="edge8" class="edge">
<title>gv&#45;&gt;WO</title>
<path fill="none" stroke="black" d="M126.24,-575.34C109.55,-564.71 88.37,-551.24 71.69,-540.62"/>
<polygon fill="black" stroke="black" points="124.52,-578.39 134.84,-580.81 128.28,-572.49 124.52,-578.39"/>
<polygon fill="black" stroke="black" points="73.26,-537.47 62.94,-535.05 69.5,-543.37 73.26,-537.47"/>
</g>
<!-- gv&#45;&gt;zt -->
<g id="edge9" class="edge">
<title>gv&#45;&gt;zt</title>
<path fill="none" stroke="black" d="M145.54,-566.31C137.49,-540.9 125.44,-502.87 117.4,-477.52"/>
<polygon fill="black" stroke="black" points="142.3,-567.68 148.66,-576.15 148.98,-565.56 142.3,-567.68"/>
<polygon fill="black" stroke="black" points="120.69,-476.3 114.33,-467.82 114.02,-478.42 120.69,-476.3"/>
</g>
<!-- HW -->
<g id="node5" class="node">
<title>HW</title>
<ellipse fill="none" stroke="black" cx="109" cy="-378" rx="27" ry="18"/>
<text text-anchor="middle" x="109" y="-374.3" font-family="Times,serif" font-size="14.00">HW</text>
</g>
<!-- gv&#45;&gt;HW -->
<g id="edge10" class="edge">
<title>gv&#45;&gt;HW</title>
<path fill="none" stroke="black" d="M156.81,-565.85C159.22,-533.16 160.24,-477.03 145,-432 141.42,-421.41 135.1,-410.97 128.75,-402.19"/>
<polygon fill="black" stroke="black" points="153.31,-565.73 155.96,-575.99 160.28,-566.31 153.31,-565.73"/>
<polygon fill="black" stroke="black" points="131.34,-399.82 122.48,-394.02 125.79,-404.08 131.34,-399.82"/>
</g>
<!-- DP -->
<g id="node8" class="node">
<title>DP</title>
<ellipse fill="none" stroke="black" cx="202" cy="-90" rx="27" ry="18"/>
<text text-anchor="middle" x="202" y="-86.3" font-family="Times,serif" font-size="14.00">DP</text>
</g>
<!-- gv&#45;&gt;DP -->
<g id="edge11" class="edge">
<title>gv&#45;&gt;DP</title>
<path fill="none" stroke="black" d="M176.92,-571.96C202.39,-546.15 240,-499.79 240,-451 240,-451 240,-451 240,-233 240,-191.41 224.6,-145.22 213.4,-117.14"/>
<polygon fill="black" stroke="black" points="174.45,-569.47 169.77,-578.98 179.36,-574.46 174.45,-569.47"/>
<polygon fill="black" stroke="black" points="216.55,-115.58 209.51,-107.66 210.07,-118.24 216.55,-115.58"/>
</g>
<!-- WO&#45;&gt;zt -->
<g id="edge27" class="edge">
<title>WO&#45;&gt;zt</title>
<path fill="none" stroke="black" d="M64.68,-498.73C72.25,-490.58 80.8,-481.37 88.36,-473.23"/>
<polygon fill="black" stroke="black" points="62.02,-496.45 57.78,-506.15 67.15,-501.21 62.02,-496.45"/>
<polygon fill="black" stroke="black" points="91,-475.53 95.24,-465.82 85.87,-470.77 91,-475.53"/>
</g>
<!-- zs -->
<g id="node7" class="node">
<title>zs</title>
<ellipse fill="none" stroke="black" cx="109" cy="-162" rx="27" ry="18"/>
<text text-anchor="middle" x="109" y="-158.3" font-family="Times,serif" font-size="14.00">zs</text>
</g>
<!-- WO&#45;&gt;zs -->
<g id="edge28" class="edge">
<title>WO&#45;&gt;zs</title>
<path fill="none" stroke="black" d="M41.86,-493.48C38.62,-438.65 36.27,-312.77 73,-216 76.97,-205.55 83.37,-195.14 89.68,-186.34"/>
<polygon fill="black" stroke="black" points="38.39,-494.01 42.54,-503.76 45.38,-493.56 38.39,-494.01"/>
<polygon fill="black" stroke="black" points="92.64,-188.23 95.87,-178.14 87.05,-184.02 92.64,-188.23"/>
</g>
<!-- iu -->
<g id="node9" class="node">
<title>iu</title>
<ellipse fill="none" stroke="black" cx="109" cy="-306" rx="27" ry="18"/>
<text text-anchor="middle" x="109" y="-302.3" font-family="Times,serif" font-size="14.00">iu</text>
</g>
<!-- WO&#45;&gt;iu -->
<g id="edge29" class="edge">
<title>WO&#45;&gt;iu</title>
<path fill="none" stroke="black" d="M45.45,-493.72C47.97,-460.9 54.78,-404.65 73,-360 77.22,-349.65 83.68,-339.26 89.96,-330.45"/>
<polygon fill="black" stroke="black" points="41.95,-493.68 44.75,-503.9 48.93,-494.17 41.95,-493.68"/>
<polygon fill="black" stroke="black" points="92.92,-332.34 96.1,-322.24 87.31,-328.15 92.92,-332.34"/>
</g>
<!-- end -->
<g id="node12" class="node">
<title>end</title>
<ellipse fill="none" stroke="red" cx="27" cy="-90" rx="27" ry="18"/>
<text text-anchor="middle" x="27" y="-86.3" font-family="Times,serif" font-size="14.00">end</text>
</g>
<!-- WO&#45;&gt;end -->
<g id="edge37" class="edge">
<title>WO&#45;&gt;end</title>
<path fill="none" stroke="black" d="M16,-233C17.67,-192.91 21.64,-146.59 24.33,-118.05"/>
<polygon fill="black" stroke="black" points="27.82,-118.31 25.29,-108.03 20.85,-117.65 27.82,-118.31"/>
<path fill="none" stroke="black" d="M40.25,-503.94C30.96,-459.62 8.19,-337.23 16,-235"/>
</g>
<!-- zt&#45;&gt;HW -->
<g id="edge6" class="edge">
<title>zt&#45;&gt;HW</title>
<path fill="none" stroke="black" d="M109,-421.67C109,-416.69 109,-411.49 109,-406.51"/>
<polygon fill="black" stroke="black" points="105.5,-421.7 109,-431.7 112.5,-421.7 105.5,-421.7"/>
<polygon fill="black" stroke="black" points="112.5,-406.1 109,-396.1 105.5,-406.1 112.5,-406.1"/>
</g>
<!-- HW&#45;&gt;zs -->
<g id="edge18" class="edge">
<title>HW&#45;&gt;zs</title>
<path fill="none" stroke="black" d="M129.07,-353.92C135.46,-345.15 141.71,-334.69 145,-324 159.11,-278.12 159.11,-261.88 145,-216 141.71,-205.31 135.46,-194.85 129.07,-186.08"/>
<polygon fill="black" stroke="black" points="126.12,-352.02 122.75,-362.07 131.65,-356.31 126.12,-352.02"/>
<polygon fill="black" stroke="black" points="131.65,-183.69 122.75,-177.93 126.12,-187.98 131.65,-183.69"/>
</g>
<!-- HW&#45;&gt;iu -->
<g id="edge19" class="edge">
<title>HW&#45;&gt;iu</title>
<path fill="none" stroke="black" d="M109,-349.67C109,-344.69 109,-339.49 109,-334.51"/>
<polygon fill="black" stroke="black" points="105.5,-349.7 109,-359.7 112.5,-349.7 105.5,-349.7"/>
<polygon fill="black" stroke="black" points="112.5,-334.1 109,-324.1 105.5,-334.1 112.5,-334.1"/>
</g>
<!-- HW&#45;&gt;end -->
<g id="edge36" class="edge">
<title>HW&#45;&gt;end</title>
<path fill="none" stroke="black" d="M92.37,-363.62C65.62,-340.48 16,-290.11 16,-235"/>
</g>
<!-- QJ -->
<g id="node6" class="node">
<title>QJ</title>
<ellipse fill="none" stroke="black" cx="109" cy="-90" rx="27" ry="18"/>
<text text-anchor="middle" x="109" y="-86.3" font-family="Times,serif" font-size="14.00">QJ</text>
</g>
<!-- zs&#45;&gt;QJ -->
<g id="edge32" class="edge">
<title>zs&#45;&gt;QJ</title>
<path fill="none" stroke="black" d="M109,-133.67C109,-128.69 109,-123.49 109,-118.51"/>
<polygon fill="black" stroke="black" points="105.5,-133.7 109,-143.7 112.5,-133.7 105.5,-133.7"/>
<polygon fill="black" stroke="black" points="112.5,-118.1 109,-108.1 105.5,-118.1 112.5,-118.1"/>
</g>
<!-- zs&#45;&gt;DP -->
<g id="edge33" class="edge">
<title>zs&#45;&gt;DP</title>
<path fill="none" stroke="black" d="M134.83,-141.56C147.84,-131.77 163.56,-119.93 176.52,-110.18"/>
<polygon fill="black" stroke="black" points="132.38,-139.02 126.49,-147.83 136.59,-144.62 132.38,-139.02"/>
<polygon fill="black" stroke="black" points="178.7,-112.92 184.59,-104.11 174.49,-107.32 178.7,-112.92"/>
</g>
<!-- SK -->
<g id="node10" class="node">
<title>SK</title>
<ellipse fill="none" stroke="black" cx="109" cy="-234" rx="27" ry="18"/>
<text text-anchor="middle" x="109" y="-230.3" font-family="Times,serif" font-size="14.00">SK</text>
</g>
<!-- zs&#45;&gt;end -->
<g id="edge38" class="edge">
<title>zs&#45;&gt;end</title>
<path fill="none" stroke="black" d="M92.8,-147.17C80.82,-136.94 64.31,-122.85 50.82,-111.34"/>
<polygon fill="black" stroke="black" points="52.77,-108.39 42.89,-104.56 48.22,-113.72 52.77,-108.39"/>
</g>
<!-- by -->
<g id="node11" class="node">
<title>by</title>
<ellipse fill="none" stroke="black" cx="202" cy="-18" rx="27" ry="18"/>
<text text-anchor="middle" x="202" y="-14.3" font-family="Times,serif" font-size="14.00">by</text>
</g>
<!-- DP&#45;&gt;by -->
<g id="edge23" class="edge">
<title>DP&#45;&gt;by</title>
<path fill="none" stroke="black" d="M202,-61.67C202,-56.69 202,-51.49 202,-46.51"/>
<polygon fill="black" stroke="black" points="198.5,-61.7 202,-71.7 205.5,-61.7 198.5,-61.7"/>
<polygon fill="black" stroke="black" points="205.5,-46.1 202,-36.1 198.5,-46.1 205.5,-46.1"/>
</g>
<!-- iu&#45;&gt;DP -->
<g id="edge14" class="edge">
<title>iu&#45;&gt;DP</title>
<path fill="none" stroke="black" d="M127.12,-281.13C133.32,-272.29 139.95,-261.97 145,-252 167.83,-206.88 185.54,-150.42 194.82,-117.76"/>
<polygon fill="black" stroke="black" points="124.16,-279.26 121.15,-289.42 129.84,-283.36 124.16,-279.26"/>
<polygon fill="black" stroke="black" points="198.22,-118.61 197.53,-108.04 191.47,-116.73 198.22,-118.61"/>
</g>
<!-- iu&#45;&gt;SK -->
<g id="edge15" class="edge">
<title>iu&#45;&gt;SK</title>
<path fill="none" stroke="black" d="M109,-277.67C109,-272.69 109,-267.49 109,-262.51"/>
<polygon fill="black" stroke="black" points="105.5,-277.7 109,-287.7 112.5,-277.7 105.5,-277.7"/>
<polygon fill="black" stroke="black" points="112.5,-262.1 109,-252.1 105.5,-262.1 112.5,-262.1"/>
</g>
<!-- SK&#45;&gt;zs -->
<g id="edge24" class="edge">
<title>SK&#45;&gt;zs</title>
<path fill="none" stroke="black" d="M109,-205.67C109,-200.69 109,-195.49 109,-190.51"/>
<polygon fill="black" stroke="black" points="105.5,-205.7 109,-215.7 112.5,-205.7 105.5,-205.7"/>
<polygon fill="black" stroke="black" points="112.5,-190.1 109,-180.1 105.5,-190.1 112.5,-190.1"/>
</g>
</g>
</svg>
